<?xml version="1.0" encoding="utf-8"?>
<svg x="0pt" y="0pt" width="2000pt" height="2000pt" viewBox="0 0 2000 2000" xmlns="http://www.w3.org/2000/svg" xmlns:xlink="http://www.w3.org/1999/xlink">
  <g id="1">
    <title>Layer 2</title>
    <defs>
      <title>Smart Rectangle</title>
      <g id="2">
        <defs>
          <path id="3" d="M2000,1662.26 C2000,1848.79,1848.79,2000,1662.26,2000 C1662.26,2000,337.736,2000,337.736,2000 C151.21,2000,2.34014e-05,1848.79,-7.1162e-06,1662.26 C-7.1162e-06,1662.26,-3.76338e-05,337.736,-3.76338e-05,337.736 C-7.1162e-06,151.209,151.21,-9.03104e-05,337.736,-9.03104e-05 C337.736,-9.03104e-05,1662.26,-5.97928e-05,1662.26,-5.97928e-05 C1848.79,-5.97928e-05,2000,151.21,2000,337.736 C2000,337.736,2000,1662.26,2000,1662.26 z"/>
        </defs>
        <use xlink:href="#3" style="fill:#212121;fill-opacity:1;fill-rule:nonzero;opacity:1;stroke:none;"/>
      </g>
    </defs>
    <use xlink:href="#2"/>
  </g>
  <g id="4">
    <title>Layer 1</title>
    <linearGradient x1="399.03" y1="1567.81" x2="1602.54" y2="461.52" gradientUnits="userSpaceOnUse" id="7">
      <stop style="stop-color:#3f95ff;stop-opacity:1;"/>
      <stop offset="0.792127" style="stop-color:#8738e4;stop-opacity:1;"/>
    </linearGradient>
    <defs>
      <title>Smart Rectangle</title>
      <g id="5">
        <defs>
          <path id="6" d="M1728.78,602.229 C1728.78,680.779,1665.1,744.457,1586.55,744.457 C1586.55,744.457,1144.06,744.457,1144.06,744.457 C1065.51,744.457,1001.83,680.779,1001.83,602.229 C1001.83,523.678,1065.51,460,1144.06,460 C1144.06,460,1586.55,460,1586.55,460 C1665.1,460,1728.78,523.678,1728.78,602.229 z"/>
        </defs>
        <use xlink:href="#6" style="fill:url(#7);fill-opacity:1;fill-rule:nonzero;opacity:1;stroke:none;"/>
      </g>
    </defs>
    <use xlink:href="#5"/>
    <linearGradient x1="400.252" y1="1566.59" x2="1603.76" y2="460.298" gradientUnits="userSpaceOnUse" id="10">
      <stop style="stop-color:#3f95ff;stop-opacity:1;"/>
      <stop offset="0.792127" style="stop-color:#8738e4;stop-opacity:1;"/>
    </linearGradient>
    <defs>
      <title>Smart Rectangle</title>
      <g id="8">
        <defs>
          <path id="9" d="M1730,1011.89 C1730,1090.44,1666.32,1154.12,1587.77,1154.12 C1587.77,1154.12,418.336,1154.12,418.336,1154.12 C339.785,1154.12,276.108,1090.44,276.108,1011.89 C276.108,933.338,339.786,869.66,418.336,869.66 C418.336,869.66,1587.77,869.66,1587.77,869.66 C1666.32,869.66,1730,933.338,1730,1011.89 z"/>
        </defs>
        <use xlink:href="#9" style="fill:url(#10);fill-opacity:1;fill-rule:nonzero;opacity:1;stroke:none;"/>
      </g>
    </defs>
    <use xlink:href="#8"/>
    <linearGradient x1="400.252" y1="1566.58" x2="1603.77" y2="460.296" gradientUnits="userSpaceOnUse" id="13">
      <stop style="stop-color:#3f95ff;stop-opacity:1;"/>
      <stop offset="0.792127" style="stop-color:#8738e4;stop-opacity:1;"/>
    </linearGradient>
    <defs>
      <title>Smart Rectangle</title>
      <g id="11">
        <defs>
          <path id="12" d="M1006.03,1422.77 C1006.03,1501.32,942.357,1565,863.806,1565 C863.806,1565,421.317,1565,421.317,1565 C342.767,1565,279.089,1501.32,279.089,1422.77 C279.089,1344.22,342.766,1280.54,421.317,1280.54 C421.317,1280.54,863.806,1280.54,863.806,1280.54 C942.357,1280.54,1006.03,1344.22,1006.03,1422.77 z"/>
        </defs>
        <use xlink:href="#12" style="fill:url(#13);fill-opacity:1;fill-rule:nonzero;opacity:1;stroke:none;"/>
      </g>
    </defs>
    <use xlink:href="#11"/>
  </g>
</svg>
