<?xml version="1.0" encoding="utf-8"?>
<svg x="367.616pt" y="408.084pt" width="1257.03pt" height="170.386pt" viewBox="367.616 408.084 1257.03 170.386" xmlns="http://www.w3.org/2000/svg" xmlns:xlink="http://www.w3.org/1999/xlink">
  <clipPath id="2">
    <use xlink:href="#1"/>
    <path id="1" d="M367.616,408.084 C367.616,408.084,538.002,408.084,538.002,408.084 C538.002,408.084,538.002,578.47,538.002,578.47 C538.002,578.47,367.616,578.47,367.616,578.47 C367.616,578.47,367.616,408.084,367.616,408.084 z"/>
  </clipPath>
  <g id="3" style="clip-path:url(#2);">
    <title>ClipGroup</title>
    <g id="4">
      <title>Group</title>
      <g id="5">
        <title>Group</title>
        <g id="6">
          <title>Group</title>
          <g id="7">
            <title>Group</title>
            <defs>
              <title>Shape 32</title>
              <g id="8">
                <defs>
                  <path id="9" d="M538.001,549.697 C538.001,565.588,525.12,578.47,509.228,578.47 C509.228,578.47,396.389,578.47,396.389,578.47 C380.498,578.47,367.616,565.588,367.616,549.697 C367.616,549.697,367.616,436.857,367.616,436.857 C367.616,420.966,380.498,408.084,396.389,408.084 C396.389,408.084,509.228,408.084,509.228,408.084 C525.12,408.084,538.001,420.966,538.001,436.857 C538.001,436.857,538.001,549.697,538.001,549.697 z"/>
                </defs>
                <use xlink:href="#9" style="fill:#212121;fill-opacity:1;fill-rule:evenodd;opacity:1;stroke:none;"/>
              </g>
            </defs>
            <use xlink:href="#8"/>
          </g>
        </g>
      </g>
    </g>
    <g id="10">
      <title>Group</title>
      <g id="11">
        <title>Group</title>
        <g id="12">
          <title>Group</title>
          <g id="13">
            <title>Group</title>
            <linearGradient x1="401.61" y1="541.65" x2="504.141" y2="447.402" gradientUnits="userSpaceOnUse" id="16">
              <stop style="stop-color:#3f95ff;stop-opacity:1;"/>
              <stop offset="0.792127" style="stop-color:#8738e4;stop-opacity:1;"/>
            </linearGradient>
            <defs>
              <title>Shape 33</title>
              <g id="14">
                <defs>
                  <path id="15" d="M514.896,459.39 C514.896,466.082,509.47,471.507,502.779,471.507 C502.779,471.507,465.082,471.507,465.082,471.507 C458.39,471.507,452.965,466.082,452.965,459.39 C452.965,452.698,458.39,447.273,465.082,447.273 C465.082,447.273,502.779,447.273,502.779,447.273 C509.47,447.273,514.896,452.698,514.896,459.39 z"/>
                </defs>
                <use xlink:href="#15" style="fill:url(#16);fill-opacity:1;fill-rule:evenodd;opacity:1;stroke:none;"/>
              </g>
            </defs>
            <use xlink:href="#14"/>
          </g>
        </g>
      </g>
      <g id="17">
        <title>Group</title>
        <g id="18">
          <title>Group</title>
          <g id="19">
            <title>Group</title>
            <linearGradient x1="401.714" y1="541.546" x2="504.245" y2="447.298" gradientUnits="userSpaceOnUse" id="22">
              <stop style="stop-color:#3f95ff;stop-opacity:1;"/>
              <stop offset="0.792127" style="stop-color:#8738e4;stop-opacity:1;"/>
            </linearGradient>
            <defs>
              <title>Shape 34</title>
              <g id="20">
                <defs>
                  <path id="21" d="M514.999,494.29 C514.999,500.982,509.574,506.407,502.882,506.407 C502.882,506.407,403.255,506.407,403.255,506.407 C396.563,506.407,391.138,500.982,391.138,494.29 C391.138,487.598,396.563,482.173,403.255,482.173 C403.255,482.173,502.882,482.173,502.882,482.173 C509.574,482.173,514.999,487.598,514.999,494.29 z"/>
                </defs>
                <use xlink:href="#21" style="fill:url(#22);fill-opacity:1;fill-rule:evenodd;opacity:1;stroke:none;"/>
              </g>
            </defs>
            <use xlink:href="#20"/>
          </g>
        </g>
      </g>
      <g id="23">
        <title>Group</title>
        <g id="24">
          <title>Group</title>
          <g id="25">
            <title>Group</title>
            <linearGradient x1="401.714" y1="541.545" x2="504.246" y2="447.298" gradientUnits="userSpaceOnUse" id="28">
              <stop style="stop-color:#3f95ff;stop-opacity:1;"/>
              <stop offset="0.792127" style="stop-color:#8738e4;stop-opacity:1;"/>
            </linearGradient>
            <defs>
              <title>Shape 35</title>
              <g id="26">
                <defs>
                  <path id="27" d="M453.322,529.294 C453.322,535.986,447.898,541.411,441.206,541.411 C441.206,541.411,403.509,541.411,403.509,541.411 C396.817,541.411,391.392,535.986,391.392,529.294 C391.392,522.602,396.817,517.177,403.509,517.177 C403.509,517.177,441.206,517.177,441.206,517.177 C447.898,517.177,453.322,522.602,453.322,529.294 z"/>
                </defs>
                <use xlink:href="#27" style="fill:url(#28);fill-opacity:1;fill-rule:evenodd;opacity:1;stroke:none;"/>
              </g>
            </defs>
            <use xlink:href="#26"/>
          </g>
        </g>
      </g>
    </g>
  </g>
  <clipPath id="30">
    <use xlink:href="#29"/>
    <path id="29" d="M367.616,408.084 C367.616,408.084,538.002,408.084,538.002,408.084 C538.002,408.084,538.002,578.47,538.002,578.47 C538.002,578.47,367.616,578.47,367.616,578.47 C367.616,578.47,367.616,408.084,367.616,408.084 z"/>
  </clipPath>
  <g id="31" style="clip-path:url(#30);"/>
  <linearGradient x1="594.482" y1="517.584" x2="1632.38" y2="517.584" gradientUnits="userSpaceOnUse" id="34">
    <stop style="stop-color:#3f95ff;stop-opacity:1;"/>
    <stop offset="1" style="stop-color:#8738e3;stop-opacity:1;"/>
  </linearGradient>
  <defs>
    <title>Text</title>
    <g id="32">
      <defs>
        <path id="33" d="M694.338,530.594 C686.122,537.862,675.062,541.97,662.896,541.97 C637.616,541.97,617.708,522.536,617.708,498.204 C617.708,473.714,637.616,454.122,662.896,454.122 C675.062,454.122,686.122,458.388,694.338,465.814 C694.338,465.814,694.338,448.592,694.338,448.592 C685.174,442.746,674.43,439.428,662.896,439.428 C630.348,439.428,603.962,465.814,603.962,498.204 C603.962,530.594,630.348,556.664,662.896,556.664 C674.43,556.664,685.174,553.346,694.338,547.658 z M813.154,440.06 C844.912,440.06,870.508,466.446,870.508,498.994 C870.508,531.384,844.912,557.612,813.154,557.612 C781.554,557.612,755.958,531.384,755.958,498.994 C755.958,466.446,781.554,440.06,813.154,440.06 z M813.154,542.918 C837.644,542.918,857.236,523.326,857.236,498.836 C857.236,474.346,837.644,454.754,813.154,454.754 C788.664,454.754,769.23,474.346,769.23,498.836 C769.23,523.326,788.664,542.918,813.154,542.918 z M932.128,555.084 C932.128,555.084,932.128,442.746,932.128,442.746 C932.128,442.746,975.262,442.746,975.262,442.746 C1001.17,442.746,1031.83,458.23,1031.83,498.994 C1031.83,539.6,1001.17,555.084,975.262,555.084 z M946.506,539.916 C946.506,539.916,973.998,539.916,973.998,539.916 C993.59,539.916,1018.08,531.7,1018.08,498.994 C1018.08,466.13,993.59,457.124,973.998,457.124 C973.998,457.124,946.506,457.124,946.506,457.124 z M1111.14,555.084 C1111.14,555.084,1096.61,555.084,1096.61,555.084 C1096.61,555.084,1096.61,442.746,1096.61,442.746 C1096.61,442.746,1111.14,442.746,1111.14,442.746 z M1175.92,555.084 C1175.92,555.084,1175.92,436.426,1175.92,436.426 C1175.92,436.426,1261.4,524.906,1261.4,524.906 C1261.4,524.906,1261.4,442.746,1261.4,442.746 C1261.4,442.746,1275.94,442.746,1275.94,442.746 C1275.94,442.746,1275.94,560.93,1275.94,560.93 C1275.94,560.93,1190.3,472.924,1190.3,472.924 C1190.3,472.924,1190.3,555.084,1190.3,555.084 z M1394.75,440.06 C1426.51,440.06,1452.11,466.446,1452.11,498.994 C1452.11,531.384,1426.51,557.612,1394.75,557.612 C1363.15,557.612,1337.56,531.384,1337.56,498.994 C1337.56,466.446,1363.15,440.06,1394.75,440.06 z M1394.75,542.918 C1419.24,542.918,1438.83,523.326,1438.83,498.836 C1438.83,474.346,1419.24,454.754,1394.75,454.754 C1370.26,454.754,1350.83,474.346,1350.83,498.836 C1350.83,523.326,1370.26,542.918,1394.75,542.918 z M1568.39,529.33 C1568.39,529.33,1609,442.746,1609,442.746 C1609,442.746,1624.48,442.746,1624.48,442.746 C1624.48,442.746,1568.39,560.93,1568.39,560.93 C1568.39,560.93,1512.15,442.746,1512.15,442.746 C1512.15,442.746,1527.63,442.746,1527.63,442.746 z"/>
      </defs>
      <use xlink:href="#33" style="fill:#000000;fill-opacity:0;fill-rule:nonzero;opacity:1;stroke:none;"/>
      <use xlink:href="#33" style="fill:url(#34);fill-opacity:1;fill-rule:nonzero;opacity:1;stroke:none;"/>
    </g>
  </defs>
  <use xlink:href="#32"/>
</svg>
